<svg width="1088" height="1007" viewBox="0 0 1088 1007" fill="none" xmlns="http://www.w3.org/2000/svg">
<mask id="mask0_3_133" style="mask-type:luminance" maskUnits="userSpaceOnUse" x="67" y="86" width="794" height="794">
<path d="M67 86.2987H860.701V880H67V86.2987Z" fill="white"/>
</mask>
<g mask="url(#mask0_3_133)">
<path d="M412.045 416.804C411.797 417.539 411.679 418.216 411.679 418.826C411.679 419.439 411.551 419.99 411.312 420.478C411.551 420.724 411.739 420.97 411.861 421.212C411.985 421.458 412.168 421.704 412.416 421.947C413.637 424.396 414.435 426.783 414.8 429.108C415.167 431.439 415.96 432.843 417.189 433.331C417.189 430.639 416.636 427.887 415.537 425.068C414.435 422.255 413.268 419.502 412.045 416.804ZM420.495 600.071C420.733 599.336 420.861 598.235 420.861 596.766C418.897 597.748 417.309 596.891 416.087 594.195C416.573 592.239 416.453 590.704 415.72 589.604C414.984 588.5 414.004 587.711 412.781 587.216C412.535 588.198 412.228 589.116 411.861 589.971C411.496 590.832 411.065 591.623 410.576 592.358L411.679 593.46C411.679 595.422 412.535 596.891 414.251 597.866C415.96 598.848 417.676 600.564 419.392 603.01C419.635 602.522 419.817 602.034 419.941 601.539C420.065 601.052 420.248 600.564 420.495 600.071ZM411.679 443.615C413.391 443.127 414.737 442.027 415.72 440.31C413.515 438.106 411.985 435.478 411.129 432.414C410.269 429.354 409.229 427.334 408.008 426.354C407.271 427.334 406.539 428.188 405.801 428.923C405.069 429.658 404.208 430.52 403.233 431.496C404.703 431.496 405.677 432.596 406.172 434.8C405.435 438.471 406.411 440.31 409.107 440.31C410.819 441.291 411.679 442.392 411.679 443.615ZM403.6 601.907C402.867 602.64 402.249 603.135 401.764 603.375C403.472 604.604 405.069 606.074 406.539 607.784C408.008 609.5 409.349 610.968 410.576 612.19V614.762C411.551 613.787 412.471 612.866 413.331 612.007C414.187 611.152 414.984 610.235 415.72 609.252C414.737 608.764 414.124 608.03 413.885 607.048C413.885 605.091 413.148 603.806 411.679 603.192C410.209 602.583 408.493 601.052 406.539 598.6C405.801 599.583 404.821 600.684 403.6 601.907ZM397.721 436.636C398.459 438.106 399.928 439.822 402.129 441.779C401.636 440.556 401.087 439.518 400.477 438.658C399.864 437.802 399.315 436.883 398.825 435.902C398.577 436.148 398.395 436.27 398.276 436.27C398.148 436.27 397.964 436.395 397.721 436.636ZM397.721 608.884C397.228 608.884 396.495 608.643 395.52 608.15C395.025 608.398 394.66 608.643 394.417 608.884C394.169 609.132 393.804 609.378 393.313 609.619C392.581 613.292 394.417 615.128 398.825 615.128C401.517 616.598 402.249 618.432 401.027 620.638C402.249 620.143 403.352 619.536 404.332 618.802C405.312 618.067 406.411 617.332 407.641 616.598C405.677 616.598 404.332 615.742 403.6 614.027C404.089 612.071 403.655 610.664 402.313 609.803C400.967 608.948 399.435 608.643 397.721 608.884ZM388.54 625.78C390.009 625.286 391.537 624.735 393.131 624.128C394.724 623.512 396.252 622.96 397.721 622.472H396.623C394.907 621.247 393.373 619.842 392.032 618.25C390.681 616.655 389.396 614.887 388.173 612.924C386.209 614.152 384.255 615.128 382.3 615.862L383.032 616.598C382.785 618.555 383.335 620.271 384.684 621.74C386.027 623.207 386.457 623.328 385.971 622.107C387.679 623.083 388.54 624.31 388.54 625.78ZM379.361 627.982C379.847 627.738 380.336 627.616 380.831 627.616C381.316 627.616 381.805 627.49 382.3 627.248C381.069 625.78 380.029 624.31 379.179 622.842C378.313 621.371 377.279 619.903 376.056 618.432C375.563 618.92 374.953 619.226 374.216 619.351C373.484 619.472 372.747 619.776 372.015 620.271L372.747 622.472C372.257 623.942 372.257 625.164 372.747 626.146C373.237 627.122 374.953 627.368 377.892 626.88C378.377 627.122 378.867 627.49 379.361 627.982ZM378.259 421.212C376.789 421.212 375.809 420.603 375.32 419.375C374.587 419.134 373.787 418.951 372.935 418.826C372.069 418.703 371.281 418.52 370.545 418.274C372.747 419.99 373.237 421.704 372.015 423.415H376.056C377.521 423.415 378.991 423.542 380.46 423.783V423.048C380.46 422.807 380.52 422.624 380.643 422.496C380.767 422.378 380.831 422.192 380.831 421.947C380.584 421.704 379.965 421.338 378.991 420.844C378.744 420.844 378.624 420.908 378.624 421.027C378.624 421.155 378.501 421.212 378.259 421.212ZM365.404 622.472C364.173 622.96 362.951 623.264 361.729 623.392C360.503 623.512 359.28 623.695 358.057 623.942C358.795 625.164 359.527 625.78 360.264 625.78C360.996 625.78 361.605 625.652 362.1 625.412C363.807 626.387 364.668 627.616 364.668 629.084H369.812C367.849 627.122 366.38 625.164 365.404 623.207V622.472ZM356.588 425.987C358.795 425.252 361.972 424.518 366.137 423.783C365.157 422.807 364.237 421.762 363.385 420.66C362.521 419.559 361.487 418.52 360.264 417.539C359.033 417.539 357.811 417.603 356.588 417.722C355.361 417.847 354.139 418.032 352.917 418.274C352.669 418.767 352.487 418.951 352.368 418.826C352.24 418.703 352.12 418.582 351.997 418.456C351.873 418.338 351.873 418.399 351.997 418.639C352.12 418.887 352.18 419.743 352.18 421.212C352.423 421.704 352.917 422.13 353.649 422.496C354.387 422.864 354.752 422.807 354.752 422.314C354.752 421.826 354.505 421.458 354.02 421.212C353.525 420.97 353.525 420.844 354.02 420.844C356.712 422.314 357.564 424.03 356.588 425.987ZM347.04 431.496C347.776 431.008 348.568 430.456 349.429 429.843C350.28 429.234 351.081 428.683 351.813 428.188C350.587 426.967 349.667 425.618 349.059 424.148C348.445 422.679 347.648 421.212 346.673 419.743C344.957 419.99 343.001 420.603 340.795 421.579C341.285 421.826 341.588 422.072 341.715 422.314C341.835 422.56 342.141 422.927 342.631 423.415C343.121 427.087 344.591 429.786 347.04 431.496ZM351.813 626.515C351.32 626.022 351.081 625.652 351.081 625.412C351.081 625.164 350.953 624.799 350.715 624.31C347.04 624.31 343.368 623.942 339.697 623.207C340.183 623.942 341.039 624.43 342.265 624.678C344.224 625.412 346.307 626.083 348.509 626.698C350.715 627.306 353.036 627.856 355.489 628.351C354.02 627.368 352.789 626.755 351.813 626.515ZM336.021 426.354C335.527 425.378 335.408 424.518 335.655 423.783C334.676 424.276 333.453 425.011 331.984 425.987C334.676 431.622 336.996 435.662 338.96 438.106C339.449 437.618 339.816 437.314 340.063 437.188C340.301 437.067 340.672 436.762 341.161 436.27C341.405 436.03 341.652 435.844 341.899 435.719C342.141 435.598 342.384 435.414 342.631 435.167C341.405 432.475 339.203 429.539 336.021 426.354ZM325.74 431.496C325.003 432.475 324.271 433.395 323.533 434.248C322.801 435.11 322.064 436.148 321.332 437.371C322.555 437.864 323.533 438.6 324.271 439.575C324.024 441.536 324.389 443.31 325.369 444.9C326.349 446.496 327.815 447.288 329.777 447.288C329.777 447.535 329.901 447.655 330.148 447.655C330.633 446.679 331.247 445.819 331.984 445.084C332.716 444.35 333.453 443.494 334.185 442.514C332.959 440.31 331.92 438.17 331.064 436.084C330.204 434.008 328.797 431.987 326.839 430.027C326.592 430.52 326.225 431.008 325.74 431.496ZM322.801 459.774C323.287 458.799 323.84 457.819 324.453 456.836C325.063 455.862 325.612 454.759 326.107 453.532C324.879 452.063 323.469 450.352 321.881 448.388C320.288 446.432 319.003 444.596 318.027 442.88C316.311 445.084 314.721 447.78 313.252 450.959C315.697 450.471 317.413 451.087 318.393 452.798C319.368 454.511 318.883 456.103 316.924 457.572C317.899 460.02 319.003 461.002 320.229 460.508C321.451 460.02 322.307 459.774 322.801 459.774ZM318.393 466.752C318.883 467.246 319.249 467.487 319.496 467.487L319.863 466.752C317.899 465.53 316.064 463.878 314.355 461.795C312.639 459.716 311.536 457.698 311.045 455.734C310.556 456.468 310.067 457.572 309.576 459.04C310.556 459.04 311.417 459.407 312.149 460.142C313.372 464.06 314.539 466.144 315.637 466.386C316.74 466.632 317.66 466.752 318.393 466.752ZM314.721 481.075C315.208 479.852 315.573 478.688 315.821 477.587C316.064 476.486 316.429 475.326 316.924 474.099H316.191C314.475 472.63 313.069 471.103 311.965 469.507C310.863 467.916 309.335 466.511 307.375 465.283C306.396 467.734 305.783 469.57 305.54 470.792C306.761 470.792 307.984 471.527 309.211 472.996C309.211 475.199 309.764 476.611 310.863 477.22C311.965 477.834 313.252 479.12 314.721 481.075ZM310.68 495.4C310.923 494.178 311.169 492.955 311.417 491.727C311.656 490.504 312.021 489.282 312.516 488.054C311.045 487.812 309.948 486.831 309.211 485.116C309.453 484.383 308.963 483.279 307.741 481.81C306.515 480.34 305.173 478.631 303.704 476.668C303.209 477.898 302.844 479.12 302.601 480.34C302.353 481.57 302.107 482.791 301.868 484.014C303.091 485.978 304.496 487.87 306.089 489.706C307.677 491.544 309.211 493.443 310.68 495.4ZM308.844 502.746C307.617 502.258 306.643 501.402 305.905 500.175C305.659 499.687 305.109 498.523 304.253 496.684C303.393 494.848 302.107 493.075 300.399 491.359C299.905 493.075 299.599 494.727 299.479 496.318C299.351 497.914 299.168 499.44 298.929 500.91C300.399 502.136 301.868 503.479 303.337 504.948C304.803 506.416 306.272 507.886 307.741 509.355L308.844 502.746ZM302.601 547.918C302.601 544.004 302.967 540.334 303.704 536.9C302.473 535.431 301.497 533.659 300.765 531.575C300.028 529.498 299.168 527.966 298.192 526.986C298.435 534.33 299.905 541.308 302.601 547.918ZM304.803 528.452C305.045 526.743 305.228 525.09 305.356 523.495C305.476 521.907 305.659 520.134 305.905 518.17C305.412 517.928 304.927 517.194 304.436 515.968C303.457 512.294 301.621 509.355 298.929 507.151H298.563C298.316 509.115 298.192 511.072 298.192 513.028V518.904L300.399 520.007C301.131 521.476 301.804 522.943 302.417 524.414C303.027 525.882 303.823 527.231 304.803 528.452ZM386.337 609.252C386.337 607.296 387.011 605.948 388.356 605.212C389.703 604.478 390.984 604.726 392.215 605.948C392.7 605.704 393.131 605.459 393.501 605.212C393.868 604.971 394.293 604.604 394.783 604.11C395.273 602.888 396.129 602.152 397.356 601.907C402.987 596.278 406.657 590.522 408.373 584.646C407.88 584.156 407.696 583.543 407.824 582.808C407.944 582.074 408.245 581.467 408.74 580.972V576.932C405.801 573.995 403.6 572.284 402.129 571.791C400.66 570.815 399.928 569.955 399.928 569.22C396.252 570.69 392.7 572.772 389.276 575.464C385.844 578.159 382.419 580.79 378.991 583.36C375.563 585.93 371.951 588.135 368.16 589.971C364.361 591.807 360.264 592.726 355.856 592.726C354.387 592.726 352.669 592.42 350.715 591.807C348.752 591.198 346.673 590.464 344.471 589.604C342.265 588.748 340.183 587.894 338.228 587.032C336.264 586.178 334.676 585.507 333.453 585.012C331.489 584.278 328.432 582.626 324.271 580.055C320.105 577.482 316.796 574.975 314.355 572.526C312.392 570.32 310.369 568.119 308.295 565.916C306.212 563.711 304.189 561.388 302.235 558.936C295.624 549.635 292.072 538.679 291.583 526.066C291.088 513.459 292.439 500.542 295.624 487.319C294.888 485.85 295.253 484.383 296.723 482.914C299.415 472.388 302.903 462.346 307.192 452.798C311.472 443.248 315.821 434.926 320.229 427.823C322.92 423.415 328.061 419.686 335.655 416.62C343.24 413.56 351.2 411.79 359.527 411.295C360.503 410.807 361.487 410.686 362.465 410.928C370.051 410.686 376.848 411.606 382.849 413.682C388.847 415.764 392.7 419.502 394.417 424.884C394.66 425.618 394.843 426.295 394.971 426.904C395.089 427.518 395.273 428.188 395.52 428.923C399.928 424.03 403.472 419.743 406.172 416.07C406.657 415.582 406.721 414.234 406.355 412.03C405.989 409.826 405.435 407.622 404.703 405.419C403.472 403.71 402.74 402.24 402.496 401.011C402.496 400.276 402.62 399.667 402.867 399.176L402.496 398.807C400.047 396.851 397.475 395.502 394.783 394.768C391.355 393.299 386.091 391.83 378.991 390.362C371.887 388.892 364.484 387.916 356.771 387.423C349.059 386.936 341.835 387.055 335.105 387.79C328.368 388.524 323.533 390.362 320.595 393.299C305.659 409.951 294.457 428.556 286.991 449.124C279.52 469.691 275.909 491.118 276.156 513.395C276.399 524.172 277.503 534.696 279.461 544.979C281.42 555.263 284.972 565.306 290.113 575.095C299.168 592.239 310.433 604.604 323.904 612.19C324.143 612.436 324.509 612.558 325.003 612.558L325.74 613.292C334.795 617.698 344.407 619.776 354.569 619.536C364.727 619.29 375.32 615.988 386.337 609.619V609.252ZM353.283 381.179C357.935 381.427 363.257 381.674 369.259 381.915C375.256 382.162 381.069 382.958 386.704 384.302C392.335 385.65 397.415 387.732 401.947 390.546C406.475 393.362 409.477 397.466 410.947 402.847C412.168 405.546 413.573 408.42 415.167 411.478C416.76 414.543 418.165 417.722 419.392 421.027C420.615 424.334 421.411 427.518 421.781 430.576C422.148 433.64 421.836 436.518 420.861 439.207C419.392 442.639 417.373 445.027 414.8 446.368C412.228 447.719 409.477 448.268 406.539 448.023C403.6 447.78 400.78 446.919 398.092 445.45C395.392 443.98 393.313 441.904 391.849 439.207C390.617 438.719 389.885 437.864 389.643 436.636C389.396 436.148 389.276 435.782 389.276 435.535C389.276 435.295 389.148 434.926 388.909 434.432C388.416 434.192 387.927 433.456 387.44 432.23C386.947 431.252 385.111 430.639 381.929 430.392C378.744 430.152 375.256 430.152 371.465 430.392C367.665 430.639 364.119 431.07 360.813 431.679C357.508 432.292 355.361 432.722 354.387 432.966C352.423 433.698 350.835 434.56 349.612 435.535C349.612 437.496 348.381 438.471 345.936 438.471L341.532 442.88C341.039 444.35 340.183 445.21 338.96 445.45C329.164 455.98 322.188 468.651 318.027 483.463C313.861 498.279 311.536 512.788 311.045 526.986C310.556 528.452 310.185 530.656 309.948 533.595C310.68 534.578 310.556 535.8 309.576 537.268C309.087 540.94 308.9 544.614 309.028 548.287C309.147 551.959 309.948 554.528 311.417 555.998C312.639 557.227 313.188 558.45 313.069 559.671C312.941 560.9 312.268 561.754 311.045 562.242C312.268 563.471 313.435 564.63 314.539 565.732C315.637 566.832 316.796 567.998 318.027 569.22C318.76 569.714 319.799 570.263 321.149 570.872C322.489 571.486 323.533 572.038 324.271 572.526C326.472 573.259 328.125 573.936 329.228 574.546C330.331 575.159 331.307 575.711 332.167 576.198C333.023 576.694 333.939 577.3 334.923 578.034C335.897 578.768 337.367 579.75 339.327 580.972C340.063 581.467 341.161 582.074 342.631 582.808C344.101 583.543 345.693 584.278 347.405 585.012C349.117 585.748 350.771 586.424 352.368 587.032C353.956 587.647 355.241 587.951 356.221 587.951C357.935 588.198 360.017 587.83 362.465 586.848C367.849 585.139 372.504 582.872 376.423 580.055C380.336 577.243 383.765 574.546 386.704 571.975C389.643 569.403 392.271 567.327 394.6 565.732C396.925 564.14 399.315 563.836 401.764 564.811C402.249 564.572 403.105 564.446 404.332 564.446C407.024 565.18 408.676 566.467 409.293 568.303C409.899 570.139 411.065 571.918 412.781 573.628C414.984 575.83 417.373 577.851 419.941 579.687C422.513 581.526 424.409 584.036 425.636 587.216C427.344 591.135 427.591 595.055 426.368 598.97C425.141 602.888 423.123 606.562 420.312 609.987C417.492 613.418 414.307 616.415 410.763 618.984C407.211 621.555 403.965 623.328 401.027 624.31C397.108 625.78 393.501 627.122 390.196 628.351C386.887 629.574 383.641 630.555 380.46 631.29C379.965 632.756 378.744 633.734 376.789 634.226C375.809 633.734 375.072 633.247 374.587 632.756C366.013 634.714 357.811 634.651 349.979 632.574C342.141 630.491 332.716 626.022 321.699 619.168C319.496 617.206 319.003 615.254 320.229 613.292C309.453 605.948 300.581 597.259 293.601 587.216C286.625 577.18 281.301 566.282 277.625 554.528C273.955 542.778 271.812 530.472 271.199 517.62C270.589 504.764 271.381 491.852 273.588 478.874C274.811 473.243 276.28 467.734 277.992 462.346C279.704 456.963 281.173 451.454 282.4 445.819C283.869 440.435 285.888 434.679 288.461 428.556C291.033 422.439 294.155 416.563 297.825 410.928C301.497 405.299 305.595 400.158 310.131 395.502C314.657 390.854 319.616 387.183 325.003 384.484C328.432 383.015 333.143 382.04 339.143 381.546C345.14 381.058 349.851 380.939 353.283 381.179Z" fill="#9C734E"/>
<path d="M637.177 391.095C636.444 394.768 635.461 397.953 634.239 400.645C635.213 401.137 636.079 401.872 636.812 402.847C636.812 404.811 637.361 406.337 638.464 407.439C639.567 408.541 640.725 409.459 641.952 410.195C641.457 406.033 640.853 402.297 640.116 398.991C639.383 395.685 638.4 393.057 637.177 391.095ZM629.835 417.539C629.835 417.787 629.707 418.033 629.464 418.273C629.955 418.273 630.32 418.216 630.568 418.091C630.811 417.969 631.176 417.905 631.671 417.905C633.625 419.375 635.585 421.212 637.543 423.415C639.503 425.619 641.092 427.213 642.317 428.188V418.273C641.585 418.273 640.972 418.033 640.483 417.539C639.013 415.581 637.543 413.808 636.079 412.213C634.609 410.624 633.14 408.851 631.671 406.887C631.176 408.851 630.811 410.624 630.568 412.213C630.32 413.808 630.073 415.581 629.835 417.539ZM629.464 425.252C629.217 425.011 629.035 424.884 628.915 424.884C628.787 424.884 628.604 424.764 628.365 424.517C627.872 426.479 627.565 428.373 627.445 430.209C627.317 432.045 627.016 433.944 626.525 435.901C627.016 435.901 627.381 435.783 627.629 435.536C629.835 435.536 632.279 436.7 634.976 439.024C637.667 441.353 639.988 443.861 641.952 446.553C641.952 444.844 642.012 443.191 642.135 441.595C642.259 440.005 642.317 438.232 642.317 436.269H641.585C638.648 433.579 636.5 431.127 635.159 428.924C633.809 426.721 631.909 425.499 629.464 425.252ZM629.097 442.88C627.629 443.127 626.525 442.88 625.793 442.145C625.545 443.615 625.363 445.027 625.244 446.368C625.116 447.719 624.932 449.003 624.691 450.225C626.649 451.453 628.484 452.797 630.201 454.264C631.909 455.733 634.115 456.349 636.812 456.103C639.013 457.329 639.869 458.984 639.383 461.06C638.889 463.143 637.301 463.941 634.609 463.447C631.909 461.977 629.889 460.572 628.548 459.224C627.199 457.88 625.545 456.963 623.592 456.468C623.344 458.185 623.16 459.837 623.039 461.428C622.915 463.023 622.731 464.548 622.488 466.017C623.957 466.512 625.06 467.245 625.793 468.221C626.768 470.184 628.548 472.077 631.117 473.913C633.689 475.752 636.079 476.669 638.28 476.669C638.524 476.916 638.765 477.099 639.013 477.22C639.256 477.345 639.503 477.529 639.751 477.769C639.988 475.813 640.116 473.795 640.116 471.712C640.116 469.633 640.236 467.612 640.483 465.651C640.483 464.916 640.541 463.693 640.665 461.977C640.789 460.268 640.972 458.064 641.219 455.368C639.503 454.88 638.4 453.899 637.915 452.428C637.667 450.472 636.684 448.389 634.976 446.185C633.26 443.981 631.304 442.88 629.097 442.88ZM637.915 497.236C638.152 495.032 638.336 492.828 638.464 490.625C638.583 488.423 638.765 486.096 639.013 483.648C638.035 484.14 637.053 484.261 636.079 484.013C631.176 481.321 626.283 477.769 621.384 473.364C621.139 475.325 620.891 477.099 620.652 478.688C620.405 480.285 620.157 481.937 619.916 483.648C621.384 483.648 622.488 484.383 623.22 485.849C623.22 489.769 624.872 492.34 628.183 493.563C631.487 494.791 634.728 496.013 637.915 497.236ZM618.816 492.093C618.569 493.075 618.323 493.992 618.08 494.848C617.832 495.709 617.587 496.627 617.348 497.603C620.771 499.565 623.957 501.953 626.896 504.764C629.835 507.584 632.893 510.215 636.079 512.66C636.316 511.437 636.5 510.091 636.628 508.62C636.748 507.151 636.929 505.684 637.177 504.215H636.079C633.377 501.523 630.384 499.44 627.08 497.971C623.773 496.501 621.019 494.423 618.816 491.727V492.093ZM635.341 519.272C634.609 519.52 633.625 519.272 632.403 518.539C630.439 515.359 628.183 512.42 625.609 509.723C623.039 507.032 619.916 505.316 616.244 504.581C615.997 505.316 615.815 506.115 615.695 506.968C615.567 507.828 615.384 508.62 615.141 509.355H615.512C616.977 509.849 618.445 510.824 619.916 512.293C621.384 513.763 622.855 515.416 624.323 517.252C625.793 519.089 627.317 520.925 628.915 522.761C630.504 524.597 632.037 526.008 633.507 526.985C633.507 527.231 633.745 527.599 634.239 528.087L635.341 519.272ZM632.403 539.104C632.647 537.881 632.828 536.659 632.957 535.431C633.076 534.208 633.26 532.985 633.507 531.76C632.279 532.985 630.568 533.108 628.365 532.127C626.403 529.433 624.443 526.495 622.488 523.312C620.525 520.133 618.569 517.928 616.611 516.703C615.877 517.928 614.775 518.297 613.305 517.803C612.812 519.032 612.509 520.372 612.389 521.843C612.261 523.312 612.079 524.66 611.836 525.881C615.997 528.087 619.792 530.72 623.22 533.779C626.649 536.843 629.707 538.616 632.403 539.104ZM629.835 553.793C630.073 552.572 630.32 551.352 630.568 550.123C630.811 548.9 631.057 547.677 631.304 546.449H630.568C627.135 544.245 624.013 541.675 621.203 538.736C618.387 535.8 614.895 533.961 610.733 533.227C610.244 535.679 610 537.761 610 539.471C611.223 539.471 612.445 540.205 613.672 541.675C613.915 546.575 619.303 550.616 629.835 553.793ZM624.323 582.441C624.815 580.484 625.244 578.587 625.609 576.751C625.977 574.912 626.403 573.019 626.896 571.056C626.649 571.549 626.036 572.039 625.06 572.525C621.628 572.525 618.872 571.367 616.793 569.037C614.711 566.711 612.079 564.939 608.897 563.711V568.485C609.387 568.732 609.689 568.98 609.817 569.22C609.936 569.468 610.244 569.833 610.733 570.32C611.956 572.284 612.995 573.936 613.855 575.28C614.711 576.629 615.815 577.793 617.164 578.768C618.505 579.751 620.157 580.239 622.121 580.239C623.096 580.973 623.829 581.707 624.323 582.441ZM627.261 567.751C627.748 564.812 628.237 562.368 628.732 560.407C627.748 560.652 626.649 560.407 625.427 559.671C625.18 559.431 624.443 558.879 623.22 558.019C621.993 557.163 620.525 556.183 618.816 555.08C617.1 553.98 615.384 552.757 613.672 551.407C611.956 550.065 610.489 548.652 609.268 547.184C609.021 548.652 608.897 550.123 608.897 551.592V555.997C611.343 557.468 613.612 559.12 615.695 560.957C617.768 562.793 620.157 564.324 622.855 565.547C625.299 565.059 626.768 565.793 627.261 567.751ZM621.384 597.132C621.628 595.423 621.875 593.768 622.121 592.175C622.36 590.585 622.731 588.932 623.22 587.216C622.241 587.711 621.139 587.829 619.916 587.583C618.936 586.848 617.284 585.379 614.959 583.177C612.628 580.973 610.489 578.895 608.532 576.932C608.532 578.403 608.468 579.933 608.348 581.525C608.22 583.119 608.164 584.772 608.164 586.483C608.404 586.483 609.021 586.729 610 587.216C610.976 589.421 612.02 591.135 613.123 592.357C614.225 593.587 615.631 594.687 617.348 595.661C619.055 595.423 620.405 595.909 621.384 597.132ZM617.348 611.089C617.832 609.867 618.323 608.519 618.816 607.048C619.303 605.58 619.792 603.991 620.287 602.275C620.039 602.521 619.792 602.641 619.549 602.641C619.549 602.4 619.485 602.275 619.367 602.275C619.239 602.275 619.183 602.4 619.183 602.641C617.467 603.135 615.567 602.339 613.488 600.253C611.407 598.177 609.387 596.277 607.428 594.561C607.428 596.031 607.181 597.748 606.696 599.705C607.919 600.196 608.897 600.931 609.635 601.907C610.857 604.845 612.143 606.991 613.488 608.335C614.835 609.683 616.116 610.6 617.348 611.089ZM610.368 621.005C611.103 620.271 611.836 619.473 612.573 618.619C613.305 617.756 614.041 616.964 614.775 616.231C613.059 614.763 611.407 613.171 609.817 611.455C608.22 609.745 606.568 608.151 604.86 606.68C604.367 609.132 603.391 611.455 601.921 613.659L603.391 614.393C604.612 616.597 605.593 618.251 606.329 619.351C607.061 620.455 608.404 621.005 610.368 621.005ZM598.251 619.537C597.513 618.555 597.148 617.699 597.148 616.964C595.92 617.453 594.816 617.819 593.841 618.067C592.859 618.308 591.76 618.555 590.537 618.801C591.023 618.801 591.636 619.168 592.372 619.903C595.549 624.311 598.736 626.88 601.921 627.616C602.407 627.121 602.896 626.635 603.391 626.147C603.876 625.652 604.367 625.285 604.86 625.045C604.86 624.799 604.916 624.735 605.043 624.86C605.161 624.983 605.225 624.917 605.225 624.677C603.509 623.451 602.04 622.347 600.817 621.372C599.592 620.389 598.736 619.776 598.251 619.537ZM585.761 618.801C586 619.041 586.184 619.289 586.312 619.537C586.431 619.776 586.613 620.024 586.861 620.271C587.104 619.537 587.597 619.041 588.331 618.801H585.761ZM580.252 547.552L580.988 545.348H580.252C579.519 544.861 578.657 544.125 577.683 543.144C578.657 545.107 579.519 546.575 580.252 547.552ZM582.087 538.001C582.087 537.268 582.147 536.535 582.269 535.8C582.393 535.064 582.457 534.329 582.457 533.595C582.209 533.843 582.028 533.961 581.904 533.961C581.78 533.961 581.593 534.089 581.355 534.329C579.391 534.329 577.619 533.779 576.031 532.677C574.433 531.575 572.78 530.291 571.069 528.82C571.312 530.049 571.925 531.639 572.909 533.595C574.864 534.824 576.7 535.861 578.416 536.717C580.128 537.577 581.355 538.001 582.087 538.001ZM583.191 528.82V525.148C583.191 523.925 583.309 522.704 583.556 521.477C582.087 522.456 580.617 522.456 579.149 521.477C576.7 519.032 574.616 516.517 572.909 513.947C571.192 511.376 568.62 509.484 565.196 508.255C565.681 509.484 566.047 510.824 566.295 512.293C566.537 513.763 566.904 515.111 567.397 516.333C569.357 519.52 571.252 521.843 573.092 523.312C574.927 524.781 577.065 526.129 579.519 527.352C580.988 526.864 582.209 527.352 583.191 528.82ZM581.355 514.864C579.884 509.723 578.049 504.828 575.843 500.175C575.353 500.175 574.616 499.932 573.641 499.44C571.439 496.261 569.293 493.379 567.213 490.809C565.132 488.236 562.495 486.344 559.317 485.117C560.051 487.813 560.723 490.321 561.336 492.645C561.945 494.975 562.623 497.483 563.356 500.175C564.335 500.175 565.196 500.3 565.928 500.541C568.62 502.504 571.069 504.949 573.275 507.885C575.477 510.824 578.168 513.153 581.355 514.864ZM535.445 503.845C534.952 504.828 534.709 505.441 534.709 505.684C535.931 506.416 537.153 507.279 538.384 508.255C539.607 509.236 540.829 510.215 542.056 511.193C541.323 510.459 540.404 509.539 539.301 508.437C538.203 507.336 536.916 505.809 535.445 503.845ZM545.361 517.803L544.995 517.068C544.5 518.297 543.645 519.032 542.423 519.272C541.196 519.52 539.973 518.904 538.752 517.433C538.752 516.947 538.32 515.781 537.465 513.947C536.604 512.111 534.952 511.193 532.507 511.193C531.771 513.153 531.097 515.232 530.488 517.433C529.875 519.639 529.203 521.721 528.465 523.679C531.157 525.148 533.116 526.495 534.343 527.717C535.565 528.947 537.153 529.556 539.117 529.556C540.093 527.352 541.077 525.331 542.056 523.495C543.032 521.659 544.135 519.765 545.361 517.803ZM533.977 543.879C534.463 542.656 534.892 541.371 535.263 540.023C535.629 538.679 536.055 537.395 536.549 536.165C534.832 534.943 533.364 533.659 532.141 532.309C530.911 530.968 529.075 530.291 526.631 530.291C526.136 531.517 525.713 532.74 525.344 533.961C524.977 535.191 524.547 536.413 524.061 537.636C525.037 538.864 525.897 539.901 526.631 540.757C527.367 541.617 528.708 542.536 530.672 543.511C530.672 543.757 530.791 543.879 531.039 543.879H532.141H533.24H533.977ZM529.203 559.671C529.688 558.203 530.117 556.732 530.488 555.263C530.855 553.793 531.28 552.327 531.771 550.857H531.039C529.321 549.148 527.852 547.736 526.631 546.632C525.404 545.532 523.815 544.613 521.856 543.879C521.361 545.595 520.757 547.248 520.02 548.836C519.287 550.431 518.669 551.959 518.184 553.428C520.629 555.391 522.593 556.916 524.061 558.019C525.532 559.12 527.239 559.671 529.203 559.671ZM524.428 576.565C524.913 575.096 525.344 573.571 525.713 571.976C526.081 570.384 526.507 568.732 526.996 567.016C524.3 565.307 522.281 563.711 520.94 562.241C519.591 560.772 517.937 559.797 515.979 559.303C515.488 560.772 514.879 562.184 514.143 563.528C513.411 564.875 512.797 566.161 512.307 567.384C512.797 567.632 513.099 567.876 513.227 568.119C513.347 568.364 513.649 568.732 514.143 569.22V572.525C514.632 572.525 516.039 572.893 518.368 573.628C520.693 574.363 522.465 574.976 523.692 575.464C524.181 575.957 524.428 576.324 524.428 576.565ZM520.385 589.787C520.876 588.564 521.307 587.279 521.672 585.929C522.039 584.589 522.465 583.177 522.959 581.707C521.489 582.203 520.263 582.073 519.287 581.339C518.056 579.381 516.532 578.035 514.696 577.3C512.861 576.565 511.08 575.589 509.368 574.363C509.121 575.096 508.873 575.829 508.636 576.565C508.388 577.3 508.141 578.035 507.899 578.768C510.104 580.732 511.94 582.991 513.411 585.564C514.879 588.135 517.201 589.545 520.385 589.787ZM503.124 589.787C502.877 590.035 502.759 590.281 502.759 590.521C503 590.768 503.184 590.888 503.308 590.888C503.431 590.888 503.613 591.016 503.861 591.257C508.023 597.625 511.94 600.805 515.612 600.805L516.349 601.54C516.588 600.805 516.833 600.071 517.081 599.336C517.324 598.6 517.691 597.748 518.184 596.765C514.999 594.809 512.489 592.541 510.653 589.971C508.819 587.4 506.92 585.748 504.964 585.012C504.471 585.993 504.163 586.848 504.044 587.583C503.917 588.317 503.613 589.052 503.124 589.787ZM510.837 613.292C511.327 612.557 511.757 611.765 512.124 610.905C512.489 610.049 512.916 609.132 513.411 608.151C510.961 606.68 508.755 604.971 506.8 603.009C504.836 601.052 502.631 599.216 500.185 597.5C499.696 598.483 499.325 599.461 499.087 600.439C498.84 601.419 498.473 602.4 497.983 603.375C499.696 604.604 501.165 606.009 502.392 607.6C503.613 609.196 505.203 610.6 507.165 611.823C508.636 611.335 509.859 611.823 510.837 613.292ZM504.964 622.107C505.449 621.612 505.88 621.063 506.247 620.455C506.616 619.841 507.039 619.168 507.533 618.432C506.552 618.432 505.697 618.308 504.964 618.067C503.733 615.375 502.264 613.355 500.556 612.007C498.84 610.664 497.252 609.867 495.781 609.619C494.799 611.583 494.065 612.925 493.576 613.659C494.065 615.863 495.471 617.453 497.801 618.432C500.127 619.409 502.392 620.512 504.593 621.74L504.964 622.107ZM496.515 627.983C497.252 627.983 498.227 627.616 499.453 626.88C498.227 624.917 496.697 623.264 494.863 621.924C493.027 620.573 491.373 619.168 489.904 617.699C487.94 618.676 486.352 619.409 485.131 619.903C486.352 620.389 487.332 621.247 488.069 622.473C488.069 625.652 489.411 627.489 492.105 627.983H496.515ZM481.459 506.784C481.459 507.765 481.515 508.684 481.643 509.539C481.76 510.4 481.824 511.193 481.824 511.925H482.927C483.66 512.907 484.269 513.58 484.763 513.947C485.249 514.313 485.985 514.129 486.965 513.395C488.925 514.376 489.84 515.724 489.721 517.433C489.593 519.151 488.308 520.255 485.863 520.741C485.372 520.255 484.883 519.765 484.397 519.272C483.904 518.784 483.295 518.663 482.557 518.904C482.8 521.601 483.047 524.108 483.295 526.433C483.533 528.763 483.904 531.151 484.397 533.595C485.615 529.681 486.837 526.129 488.069 522.943C488.553 521.233 489.172 519.272 489.904 517.068C490.637 514.864 491.373 512.42 492.105 509.723V508.255C491.373 508.748 490.637 508.748 489.904 508.255C488.435 507.032 487.025 505.745 485.68 504.397C484.333 503.053 482.681 502.136 480.721 501.643C480.965 502.624 481.088 503.541 481.088 504.397C481.088 505.259 481.211 506.049 481.459 506.784ZM491.007 497.788C491.007 496.931 490.879 495.892 490.637 494.665C488.677 494.665 487.332 493.691 486.599 491.727C486.105 489.523 485.185 487.629 483.844 486.035C482.497 484.444 480.841 483.404 478.885 482.913C479.129 484.873 479.312 486.769 479.435 488.605C479.559 490.44 479.743 492.34 479.989 494.297C481.697 495.525 483.295 496.931 484.763 498.523C486.233 500.117 487.94 501.155 489.904 501.643L491.373 500.909C491.127 499.687 491.007 498.648 491.007 497.788ZM479.989 475.2C481.211 476.669 482.617 478.139 484.209 479.608C485.803 481.075 487.208 482.425 488.435 483.648C487.94 482.425 487.703 481.26 487.703 480.157C487.703 479.056 487.575 477.899 487.332 476.669C486.837 476.916 485.985 477.036 484.763 477.036C483.533 475.813 482.311 474.408 481.088 472.813C479.861 471.224 478.64 469.816 477.417 468.589C477.417 469.816 477.477 470.977 477.6 472.077C477.719 473.179 477.907 474.344 478.153 475.567C478.392 475.325 479.005 475.2 479.989 475.2ZM485.496 469.324C484.269 466.145 483.295 462.839 482.557 459.407C481.824 459.655 480.841 459.407 479.619 458.673C479.129 457.451 478.52 456.468 477.783 455.733C477.051 454.999 476.315 454.264 475.581 453.532C475.824 454.999 476.007 456.411 476.131 457.755C476.255 459.103 476.437 460.508 476.684 461.977C477.169 462.472 477.719 463.08 478.336 463.816C478.941 464.548 479.619 465.163 480.356 465.651C482.557 467.855 484.269 469.081 485.496 469.324ZM480.356 450.959C478.64 444.596 477.417 438.719 476.684 433.331C475.947 432.844 475.215 432.413 474.479 432.045C473.745 431.679 473.009 431.253 472.276 430.761L474.479 443.981C475.701 443.981 476.684 444.716 477.417 446.185C477.417 447.413 478.392 449.003 480.356 450.959ZM467.136 409.459C467.868 412.155 468.541 414.664 469.155 416.987C469.763 419.317 470.313 421.825 470.807 424.517C472.276 425.499 473.745 425.987 475.215 425.987C474.479 423.048 473.499 420.236 472.276 417.539C471.045 414.847 469.337 412.155 467.136 409.459ZM604.123 573.26C603.144 571.549 603.263 570.081 604.493 568.853V561.507C603.263 559.797 603.263 558.327 604.493 557.1C604.493 552.94 604.548 548.652 604.677 544.245C604.796 539.839 605.097 535.559 605.593 531.391C606.083 526.251 606.997 521.233 608.348 516.333C609.689 511.437 610.976 506.544 612.203 501.643C611.712 500.42 611.956 499.319 612.939 498.337C613.425 496.38 613.915 493.931 614.409 490.992C615.141 486.584 615.997 481.139 616.977 474.648C617.952 468.164 618.816 461.736 619.549 455.368C617.832 453.164 618.08 451.328 620.287 449.859C620.771 446.432 621.139 443.373 621.384 440.676C621.628 437.984 621.993 435.661 622.488 433.697C622.731 432.231 623.039 430.027 623.408 427.088C623.773 424.149 624.196 421.155 624.691 418.091C625.18 415.031 625.729 412.029 626.343 409.091C626.952 406.155 627.505 403.829 627.995 402.112C628.732 399.911 629.707 397.832 630.933 395.871C632.156 393.913 632.769 391.829 632.769 389.627C631.543 388.652 630.384 387.671 629.281 386.688C628.183 385.713 626.768 384.979 625.06 384.484C621.384 383.261 618.016 384.301 614.959 387.607C611.896 390.911 609.268 395.079 607.061 400.095C604.86 405.116 603.08 410.195 601.739 415.335C600.388 420.477 599.472 424.149 598.983 426.353C597.513 433.456 596.597 440.676 596.227 448.023C595.861 455.368 595.312 462.712 594.575 470.057C593.841 476.669 592.983 483.096 592.005 489.34C591.023 495.584 590.289 502.136 589.8 508.988V519.821C589.8 524.108 589.617 528.452 589.251 532.861C588.884 537.268 588.148 541.433 587.044 545.348C585.945 549.265 584.293 552.452 582.087 554.897C580.617 555.632 579.149 555.263 577.683 553.793C574.983 550.371 572.415 545.227 569.971 538.371H566.664C564.703 537.148 563.909 535.743 564.275 534.148C564.643 532.556 565.8 531.517 567.763 531.025L565.561 523.312C563.597 521.843 562.257 520.741 561.52 520.007C560.293 518.784 559.927 517.563 560.421 516.333C560.907 515.111 561.763 514.257 562.989 513.763C561.763 508.62 560.421 503.541 558.952 498.523C557.483 493.505 555.885 488.669 554.177 484.013C552.947 483.527 552.213 482.791 551.972 481.809C551.724 480.835 551.724 479.975 551.972 479.239C549.769 474.344 547.257 470.243 544.445 466.937C541.627 463.629 538.384 461.489 534.709 460.508C532.26 460.02 529.875 460.389 527.549 461.612C525.22 462.839 523.079 464.492 521.123 466.568C519.159 468.651 517.447 470.856 515.979 473.179C514.513 475.509 513.281 477.404 512.307 478.873C509.611 483.279 507.165 487.935 504.964 492.828C502.759 497.731 500.795 502.624 499.087 507.52C499.087 507.765 499.143 508.013 499.269 508.255C499.389 508.501 499.453 508.748 499.453 508.988C498.959 510.459 498.351 511.437 497.617 511.925V513.029C497.124 514.257 496.515 516.459 495.781 519.639C495.044 522.824 494.249 526.251 493.392 529.923C492.532 533.595 491.616 537.211 490.637 540.757C489.657 544.309 488.801 547.064 488.069 549.02C488.553 550.488 489.044 551.717 489.539 552.693C490.024 555.391 489.291 556.916 487.332 557.284C485.372 557.651 483.78 556.732 482.557 554.529C481.088 554.04 480.228 553.187 479.989 551.959C479.989 552.205 479.925 552.205 479.807 551.959C479.679 551.717 479.619 551.471 479.619 551.223C479.376 550.736 479.495 549.513 479.989 547.552C478.027 541.187 476.74 534.577 476.131 527.717C475.517 520.868 474.968 514.257 474.479 507.885C473.745 501.035 473.068 494.115 472.459 487.136C471.845 480.157 471.292 473.121 470.807 466.017C469.58 465.041 468.907 463.941 468.788 462.712C468.66 461.489 469.091 460.508 470.069 459.773C469.58 454.392 468.971 449.067 468.235 443.797C467.501 438.536 466.517 433.209 465.296 427.823C464.805 427.823 464.069 427.581 463.093 427.088C462.115 425.865 461.744 424.7 461.991 423.599C462.233 422.496 462.847 421.704 463.827 421.212C462.847 417.539 461.808 413.865 460.708 410.195C459.605 406.52 458.319 402.975 456.849 399.541C454.887 398.073 453.417 396.851 452.441 395.871C451.709 395.136 451.343 394.28 451.343 393.299C449.137 393.299 446.752 393.363 444.179 393.484C441.607 393.609 439.157 393.792 436.832 394.033C434.503 394.28 432.548 394.649 430.959 395.136C429.363 395.628 428.447 396.237 428.204 396.972C427.956 398.935 427.893 400.403 428.02 401.38C428.14 402.36 428.387 403.341 428.753 404.317C429.123 405.299 429.545 406.463 430.039 407.807C430.529 409.155 431.015 411.295 431.509 414.233C433.221 425.987 434.997 437.801 436.832 449.676C438.672 461.553 441.3 473.364 444.729 485.117C445.704 488.053 446.871 490.935 448.221 493.745C449.563 496.565 450.607 499.565 451.343 502.745C454.767 514.257 457.093 526.065 458.319 538.187C459.541 550.307 460.764 562.368 461.991 574.363V573.995C463.213 580.604 464.316 586.848 465.296 592.725C466.271 598.6 468.111 604.357 470.807 609.987C471.292 610.235 471.783 611.089 472.276 612.557C472.515 613.052 472.643 613.355 472.643 613.476C472.643 613.601 472.761 613.905 473.009 614.393C473.984 614.641 475.215 615.255 476.684 616.231H485.496C485.739 615.741 485.985 615.375 486.233 615.128C486.472 614.887 486.719 614.519 486.965 614.028C486.719 614.028 486.599 613.787 486.599 613.292C486.599 610.6 487.575 609.253 489.539 609.253C491.492 605.827 493.145 602.275 494.495 598.6C495.837 594.929 497.252 591.381 498.72 587.951C499.696 585.507 500.675 583.303 501.655 581.339C501.408 580.364 501.897 579.381 503.124 578.403C504.593 574.976 506.063 571.549 507.533 568.119C509.001 564.693 510.472 561.265 511.94 557.836C511.204 556.613 511.021 555.391 511.391 554.161C511.757 552.94 512.797 552.084 514.513 551.592C515.245 549.881 515.919 548.229 516.532 546.632C517.141 545.043 517.817 543.511 518.551 542.043C517.571 539.352 518.184 537.636 520.385 536.9C520.876 535.679 521.307 534.456 521.672 533.227C522.039 532.004 522.465 530.904 522.959 529.923C522.959 529.433 523.015 529.129 523.143 529.004C523.26 528.884 523.324 528.58 523.324 528.087C522.831 526.129 523.201 524.781 524.428 524.047C525.16 521.843 525.897 519.581 526.631 517.252C527.367 514.928 528.099 512.54 528.836 510.091C527.852 509.115 527.549 508.013 527.916 506.784C528.283 505.563 529.321 504.705 531.039 504.215C531.28 502.745 531.893 501.155 532.873 499.44C534.343 497.483 535.445 497.361 536.179 499.072C538.139 501.035 540.093 502.745 542.056 504.215C544.011 505.684 545.481 507.645 546.464 510.091C546.704 511.072 547.32 512.788 548.3 515.232C549.523 514.745 550.625 515.047 551.604 516.151C552.58 517.252 552.708 518.784 551.972 520.741C551.477 521.233 551.175 521.601 551.055 521.843C550.927 522.091 550.625 522.456 550.136 522.943C551.604 529.068 553.075 535.861 554.543 543.327C556.013 550.8 557.601 558.265 559.317 565.732C561.027 573.203 562.867 580.303 564.824 587.033C566.784 593.768 568.867 599.461 571.069 604.109H571.439C573.148 605.339 574.983 606.991 576.945 609.068C578.905 611.152 580.86 613.419 582.823 615.863C587.471 617.819 591.205 617.516 594.025 614.945C596.836 612.375 598.983 608.884 600.452 604.479C601.921 600.071 602.96 595.423 603.573 590.521C604.183 585.625 604.493 581.707 604.493 578.768V573.628C604.493 573.385 604.367 573.26 604.123 573.26ZM567.032 609.987C565.316 608.277 565.196 606.561 566.664 604.845C563.48 599.461 560.971 593.092 559.135 585.748C557.3 578.403 555.765 571.056 554.543 563.711C553.316 556.367 552.213 549.452 551.239 542.961C550.255 536.477 549.275 531.391 548.3 527.717C548.052 527.477 547.933 527.111 547.933 526.617C544.259 532.252 541.136 538.129 538.568 544.245C535.995 550.371 533.729 556.613 531.771 562.977C532.013 564.205 531.648 565.307 530.672 566.281C529.44 570.448 528.159 574.608 526.813 578.768C525.468 582.936 524.181 587.096 522.959 591.257C523.933 592.484 524.181 593.707 523.692 594.929C523.201 596.156 522.221 596.891 520.757 597.132C520.263 598.361 519.836 599.461 519.471 600.439C519.1 601.419 518.669 602.521 518.184 603.744C518.669 605.705 518.056 607.048 516.349 607.784C514.385 611.948 512.367 615.863 510.288 619.537C508.205 623.207 505.816 626.88 503.124 630.555C500.675 633.979 497.983 635.633 495.044 635.512C492.105 635.385 489.227 634.469 486.416 632.757C483.596 631.041 481.029 629.085 478.704 626.88C476.373 624.677 474.479 622.96 473.009 621.74C471.045 620.024 469.273 619.041 467.685 618.801C466.088 618.555 465.172 616.719 464.929 613.292C464.929 612.557 465.048 611.948 465.296 611.455C464.805 610.968 464.563 610.355 464.563 609.619C464.069 607.175 463.396 604.787 462.544 602.457C461.684 600.135 461.011 597.748 460.521 595.296C460.032 592.357 459.541 589.483 459.052 586.665C458.563 583.855 458.072 580.973 457.587 578.035C456.849 573.141 456.3 569.284 455.929 566.467C455.564 563.653 455.253 561.084 455.015 558.753C454.767 556.428 454.52 553.859 454.277 551.04C454.035 548.229 453.545 544.245 452.812 539.104C451.581 530.783 449.993 522.577 448.033 514.497C446.075 506.416 443.996 498.4 441.795 490.44C439.588 482.487 437.387 474.465 435.18 466.385C432.979 458.307 431.143 450.105 429.673 441.779C428.936 437.371 428.387 432.844 428.02 428.188C427.653 423.541 426.853 419.133 425.631 414.968C423.924 407.869 423.247 402.36 423.612 398.441C423.979 394.527 425.448 391.647 428.02 389.811C430.589 387.975 434.2 386.997 438.856 386.872C443.503 386.752 449.38 386.936 456.483 387.424C457.459 387.671 458.319 388.284 459.052 389.259C459.295 389.753 459.541 390.304 459.788 390.911C460.032 391.527 460.275 392.076 460.521 392.564C464.929 395.503 468.907 399.607 472.459 404.868C476.007 410.136 478.52 415.095 479.989 419.743C480.475 421.212 480.781 422.679 480.905 424.149C481.029 425.619 481.211 427.213 481.459 428.924V430.761C481.697 432.723 481.824 434.679 481.824 436.636C481.824 438.6 482.063 440.557 482.557 442.513C484.517 451.328 486.965 459.959 489.904 468.404C492.843 476.852 495.288 485.484 497.252 494.297C500.428 485.243 504.964 476.731 510.837 468.773C516.715 460.819 524.795 455.861 535.08 453.899H537.649C538.139 453.164 538.993 452.676 540.22 452.428C541.443 452.188 542.545 452.555 543.525 453.532C548.172 460.876 553.564 467.551 559.684 473.547C565.8 479.551 571.439 485.849 576.58 492.461C577.555 493.444 578.288 494.057 578.781 494.297C579.271 495.032 579.519 496.013 579.519 497.236C580.493 498.464 581.355 499.749 582.087 501.093C582.823 502.44 583.556 503.727 584.293 504.949C584.779 497.849 585.635 490.752 586.861 483.648C588.084 476.548 589.187 469.451 590.165 462.345C590.903 456.963 591.576 450.225 592.189 442.145C592.799 434.067 593.961 425.987 595.677 417.905C597.385 409.825 599.839 402.36 603.024 395.503C606.203 388.652 610.609 383.749 616.244 380.811C617.713 380.079 619.239 379.709 620.835 379.709C622.425 379.709 623.957 379.589 625.427 379.344C630.073 379.101 633.26 379.836 634.976 381.545C635.461 381.305 636.079 381.179 636.812 381.179C641.952 383.631 645.38 388.771 647.096 396.604C648.805 404.444 649.6 412.948 649.483 422.129C649.355 431.311 648.749 440.069 647.647 448.389C646.543 456.716 645.867 462.593 645.628 466.017C643.664 485.609 641.403 505.259 638.829 524.964C636.261 544.677 633.012 564.205 629.097 583.543C627.872 589.913 626.832 595.48 625.977 600.253C625.116 605.028 623.957 609.253 622.488 612.925C623.464 614.152 623.647 615.375 623.039 616.597C622.425 617.819 621.261 618.555 619.549 618.801C618.816 619.776 618.08 620.637 617.348 621.372C616.611 622.107 615.877 622.96 615.141 623.941C615.631 626.387 614.409 627.856 611.471 628.351C611.223 628.351 610.976 628.224 610.733 627.983C610 628.224 609.14 628.837 608.164 629.819C607.671 630.06 607.181 630.427 606.696 630.921C607.181 632.144 606.997 633.247 606.147 634.225C605.281 635.201 603.876 635.569 601.921 635.328L601.555 634.96C601.061 634.96 600.695 635.019 600.452 635.144C600.205 635.264 599.957 635.328 599.719 635.328C596.287 635.328 593.164 634.347 590.353 632.389C587.535 630.427 584.843 628.04 582.269 625.228C579.703 622.412 577.129 619.595 574.561 616.78C571.988 613.971 569.476 611.703 567.032 609.987Z" fill="#9C734E"/>
</g>
<path d="M169.328 324.328C166.592 326.869 163.462 328.592 159.938 329.5C156.511 330.316 152.969 330.421 149.312 329.814C145.942 329.123 142.218 327.759 138.143 325.721C133.976 323.585 130.012 321.08 126.25 318.204C119.725 313.529 111.912 306.682 102.811 297.665C100.627 295.509 96.9943 291.695 91.9136 286.223L83.3399 276.99C80.988 274.261 78.4964 271.48 75.8654 268.647C70.5125 262.882 66.6356 258.021 64.2348 254.064C62.5808 252.871 61.028 251.493 59.5763 249.929C54.1327 244.067 51.9308 237.287 52.9706 229.589C54.0105 221.891 57.9012 214.912 64.6429 208.652C67.1832 206.293 70.1632 204.8 73.5829 204.171C77.0026 203.543 79.6651 204.255 81.5704 206.307C82.4777 207.284 82.8127 208.429 82.5754 209.741C82.3381 211.053 81.6332 212.253 80.4608 213.342C79.4837 214.249 78.2729 215.101 76.8282 215.896C75.4813 216.601 74.3891 216.796 73.5516 216.482L71.6463 218.252L71.3742 217.958C67.7591 221.315 65.456 224.91 64.465 228.741C63.8858 231.644 64.4685 235.015 66.2133 238.854C66.8205 240.291 67.7975 241.931 69.1445 243.774C70.4914 245.616 71.8 247.221 73.0702 248.589C73.6983 249.462 75.1011 251.07 77.2785 253.415L82.3348 258.273L87.1085 263.119C88.4694 264.585 89.8617 266.476 91.2854 268.793C93.0651 271.69 94.4085 273.626 95.3158 274.603L98.582 278.121C102.12 281.931 107.121 287.022 113.583 293.394C118.853 298.873 124.659 303.852 131.003 308.333C136.691 312.694 142.435 315.549 148.234 316.896C154.027 318.431 158.926 317.339 162.932 313.619C164.593 312.077 165.828 309.292 166.638 305.265C167.643 301.057 168.683 298.454 169.757 297.456C171.125 296.186 173.222 295.603 176.049 295.707C179.406 299.323 180.624 303.377 179.702 307.872C178.795 311.989 176.81 315.926 173.746 319.68C171.973 321.69 170.501 323.24 169.328 324.328Z" fill="#9C734E"/>
<path d="M229.393 277.941C227.961 278.919 226.484 279.12 224.962 278.545C223.624 278.005 222.429 276.965 221.377 275.423C205.662 252.41 191.951 233.276 180.243 218.021C177.3 219.386 175.277 220.444 174.176 221.195C169.662 224.278 166.677 226.882 165.221 229.006C169.431 235.172 176.28 244.138 185.768 255.904C195.671 268.516 202.503 277.574 206.262 283.08C207.014 284.181 207.398 285.453 207.414 286.895C207.355 288.227 206.83 289.231 205.839 289.908C204.407 290.885 201.357 289.255 196.687 285.017C189.812 278.733 177.666 264.019 160.249 240.877C148.426 225.217 136.161 208.082 123.454 189.474C121.013 186.135 117.649 181.328 113.364 175.052C112.01 173.07 112.27 171.44 114.141 170.162C115.243 169.41 116.532 168.933 118.009 168.732C119.596 168.455 120.89 168.459 121.892 168.744C123.858 172.568 126.457 176.848 129.69 181.583C132.848 186.207 136.903 191.673 141.855 197.978C147.373 205.351 151.448 210.964 154.079 214.817L156.11 217.79C156.601 218.747 157.26 219.83 158.087 221.041C158.839 222.143 159.927 223.499 161.35 225.11C162.011 224.659 163.074 223.852 164.54 222.689C166.007 221.527 167.436 220.309 168.827 219.036C172.235 216.224 174.82 214.217 176.582 213.014C170.04 203.434 163.877 194.646 158.093 186.648L138.928 159.291L135.883 154.831C137.314 153.854 138.769 153.264 140.246 153.063C141.648 152.751 142.887 152.793 143.964 153.188C145.782 153.723 147.816 155.401 150.066 158.224L152.66 162.023C159.127 171.492 172.046 189.229 191.418 215.235C208.95 238.782 221.852 256.612 230.123 268.725C231.175 270.266 231.62 271.981 231.456 273.869C231.402 275.681 230.714 277.039 229.393 277.941Z" fill="#9C734E"/>
<path d="M291.63 241.193C289.707 242.117 288.092 242.449 286.784 242.19C285.596 241.873 284.598 240.873 283.79 239.191L272.446 215.574C270.364 215.243 266.958 215.695 262.227 216.932C257.496 218.169 253.15 219.591 249.188 221.198C249.078 224.357 249.589 227.884 250.72 231.778L251.731 235.73C252.015 236.629 252.549 238.665 253.334 241.839C254.118 245.012 254.67 247.853 254.988 250.363C255.248 252.752 255.306 254.721 255.162 256.27C250.595 258.463 247.374 258.532 245.498 256.474C245.896 253.916 244.685 247.546 241.865 237.363L231.967 201.514C227.106 184.619 223.102 170.124 219.954 158.028C216.927 145.874 214.885 135.465 213.83 126.801C212.611 117.18 213.263 111.763 215.787 110.551C218.311 109.339 220.465 108.896 222.249 109.222C224.558 114.03 231.271 125.079 242.387 142.371C253.45 159.245 260.57 170.986 263.745 177.597C266.805 183.967 271.853 192.783 278.89 204.047C285.923 215.609 291.171 224.995 294.635 232.206C296.598 236.293 295.596 239.288 291.63 241.193ZM263.638 206.936C264.599 206.474 265.714 205.717 266.983 204.663C264.083 199.548 260.335 193.287 255.742 185.879C239.93 160.044 230.552 144.062 227.608 137.932L226.915 136.49C226.291 138.269 227.235 144.546 229.748 155.32C232.323 165.917 235.365 177.177 238.873 189.1C242.382 201.023 244.942 208.816 246.553 212.48C252.294 211.497 257.989 209.649 263.638 206.936Z" fill="#9C734E"/>
<path d="M327.837 228.429C326.438 228.87 325.113 228.659 323.862 227.796C322.697 226.765 321.834 225.36 321.273 223.58L311.541 191.418C307.026 175.785 303.424 163.709 300.735 155.19C291.384 125.564 282.568 103.389 274.285 88.6661C275.27 85.1397 277.224 82.9149 280.148 81.9919C284.853 80.507 289.454 80.2433 293.95 81.2009C298.534 81.9912 302.659 83.7651 306.326 86.5227C313.613 92.3322 318.701 99.8144 321.59 108.969C324.6 118.505 325.255 127.667 323.554 136.453C321.853 145.239 317.786 152.954 311.354 159.598L317.816 178.741L321.388 188.729C322.197 190.85 323.244 193.945 324.528 198.014C327.599 206.413 329.977 213.282 331.662 218.623C332.425 221.038 332.518 223.106 331.942 224.826C331.367 226.546 329.998 227.747 327.837 228.429ZM308.083 150.564C311.557 144.294 313.636 138.255 314.319 132.446C315.09 126.471 314.452 120.241 312.405 113.756L312.345 113.565C311.422 110.641 309.94 107.054 307.9 102.804C307.037 101.399 305.856 100.094 304.357 98.8889C302.858 97.6841 302.005 96.9746 301.798 96.7605C300.506 95.7699 297.532 94.5415 292.875 93.0754L286.772 91.0168C288.819 97.5014 292.371 107.426 297.428 120.79L308.083 150.564Z" fill="#9C734E"/>
<path d="M417.02 206.545C414.916 206.893 413.272 206.759 412.089 206.144C411.038 205.506 410.36 204.267 410.056 202.425L405.787 176.575C403.881 175.674 400.484 175.154 395.596 175.015C390.708 174.876 386.138 175.023 381.885 175.455C380.894 178.457 380.396 181.985 380.39 186.04L380.252 190.117C380.273 191.06 380.215 193.164 380.078 196.43C379.942 199.696 379.675 202.578 379.276 205.076C378.857 207.443 378.361 209.349 377.788 210.795C372.79 211.621 369.678 210.783 368.454 208.282C369.554 205.938 370.177 199.484 370.324 188.919L370.872 151.733C370.942 134.153 371.161 119.116 371.53 106.622C372.031 94.1069 372.989 83.5429 374.405 74.9304C375.931 65.3537 378.076 60.3372 380.838 59.881C383.601 59.4247 385.793 59.6033 387.413 60.4167C388.283 65.6788 391.629 78.1671 397.452 97.8816C403.342 117.18 406.885 130.447 408.08 137.682C409.231 144.654 411.606 154.532 415.204 167.317C418.714 180.387 421.121 190.868 422.424 198.761C423.163 203.234 421.362 205.828 417.02 206.545ZM399.753 165.815C400.805 165.641 402.088 165.226 403.601 164.571C402.251 158.848 400.409 151.787 398.076 143.388C390.14 114.157 385.618 96.1873 384.51 89.4782L384.249 87.8996C383.151 89.4324 382.298 95.7221 381.69 106.769C381.192 117.662 380.955 129.323 380.981 141.752C381.006 154.181 381.279 162.379 381.799 166.347C387.585 167.013 393.57 166.836 399.753 165.815Z" fill="#9C734E"/>
<path d="M458.237 203.565C455.57 203.573 453.235 202.981 451.231 201.787C449.361 200.593 448.422 198.929 448.416 196.795C451.34 193.853 452.783 186.049 452.744 173.382C452.72 165.782 452.086 154.717 450.841 140.188C449.465 126.325 448.764 115.394 448.74 107.394L449.106 96.3928C449.229 93.1924 449.285 89.5256 449.272 85.3923C449.26 81.6589 448.579 76.9277 447.228 71.1985C445.609 65.2035 444.796 61.006 444.789 58.606C444.775 53.9393 449.901 51.5902 460.167 51.5585L463.167 51.5492C470.367 51.527 476.641 53.7076 481.988 58.0911C486.266 61.8112 489.882 67.2001 492.838 74.2577C494.852 79.0515 496.606 85.7128 498.099 94.2415C498.922 101.706 499.341 107.571 499.354 111.838L499.373 118.238L499.403 127.638C499.137 128.172 499.006 128.706 499.007 129.239C499.011 130.306 499.08 131.105 499.215 131.638C499.35 132.171 499.419 132.838 499.421 133.638C499.434 137.904 498.783 143.04 497.469 149.044C496.287 154.914 494.505 160.92 492.124 167.06C486.17 181.745 479.468 192.166 472.021 198.323C467.631 201.803 463.037 203.55 458.237 203.565ZM462.401 191.952C467.325 188.87 471.645 184.457 475.36 178.712C479.075 172.834 481.922 166.358 483.9 159.286C487.46 146.208 489.219 133.002 489.178 119.669C489.156 112.469 488.465 104.605 487.105 96.0755C485.613 87.8134 482.456 80.3564 477.636 73.7046C475.359 70.5116 472.485 68.0538 469.013 66.3312C465.541 64.4753 461.604 63.5541 457.204 63.5677L457.205 63.7677C457.242 75.7676 458.098 93.8984 459.773 118.16C461.448 142.288 462.304 160.552 462.342 172.952L462.401 191.952Z" fill="#9C734E"/>
<path d="M580.038 219.87C578.726 219.632 577.795 218.786 577.245 217.332C576.696 215.877 576.647 213.904 577.098 211.411L582.175 182.249C582.495 179.732 583.177 175.587 584.223 169.815C586.169 157.566 588.533 143.766 591.312 128.415L593.129 118.378C590.808 124.462 587.171 132.95 582.218 143.842C577.194 155.127 573.402 164.468 570.844 171.864L570.63 173.045L569.362 176.677C568.577 179.516 567.387 182.349 565.791 185.177C563.909 188.088 561.59 189.294 558.835 188.795C554.112 187.94 552.867 181.346 555.1 169.013C556.335 162.191 556.932 154.779 556.89 146.776C557.003 138.667 556.584 128.632 555.633 116.671L553.72 93.5603L549.051 117.105C547.768 124.19 545.649 137.763 542.695 157.824L540.665 171.278L536.177 198.311C535.678 201.066 534.243 203.381 531.871 205.255C528.591 204.661 526.473 203.261 525.518 201.055C524.717 198.742 524.673 195.618 525.385 191.682L528.701 175.616C530.377 168.602 531.536 163.324 532.178 159.782L538.661 121.728L545.18 83.4774C546.201 77.8358 547.865 69.3972 550.17 58.1615L556.054 55.9747C557.08 56.296 557.987 57.2732 558.775 58.9065C559.587 60.4085 560.376 62.7871 561.142 66.0422C562.949 74.7705 564.267 91.8114 565.097 117.165C565.266 120.719 565.281 123.634 565.139 125.912C565.336 133.807 565.406 139.782 565.349 143.836L565.557 159.525L568.111 153.28L574.772 137.819C578.581 128.753 581.784 120.796 584.378 113.949C587.104 107.125 589.872 99.6993 592.68 91.6712C595.905 82.0925 598.308 74.0588 599.889 67.57L600.103 66.3892C600.674 64.7311 601.699 63.5617 603.177 62.8808C604.679 62.0688 606.349 61.829 608.186 62.1616C609.366 62.3754 610.321 63.0902 611.049 64.3061C611.778 65.522 612.035 66.7203 611.821 67.9011C608.971 83.6452 605.297 107.302 600.8 138.873C598.677 154.342 596.416 169.448 594.018 184.19C593.069 190.929 591.668 199.415 589.815 209.648C589.269 212.666 587.995 215.213 585.993 217.29C583.991 219.366 582.006 220.226 580.038 219.87Z" fill="#9C734E"/>
<path d="M650.664 237.537C648.664 236.796 647.303 235.864 646.581 234.743C645.984 233.669 646.01 232.256 646.66 230.506L655.77 205.941C654.562 204.213 651.87 202.077 647.694 199.533C643.518 196.989 639.477 194.85 635.569 193.116C633.22 195.231 631.038 198.048 629.022 201.567L626.881 205.039C626.431 205.868 625.338 207.666 623.6 210.435C621.862 213.203 620.201 215.574 618.616 217.546C617.078 219.393 615.702 220.802 614.488 221.774C609.738 220.012 607.451 217.742 607.628 214.964C609.745 213.474 613.487 208.178 618.854 199.076L637.769 167.055C646.546 151.823 654.193 138.874 660.708 128.207C667.349 117.587 673.419 108.888 678.919 102.111C684.994 94.5516 689.343 91.2587 691.969 92.2323C694.594 93.206 696.409 94.4478 697.413 95.9579C695.558 100.958 692.272 113.463 687.553 133.47C683.099 153.15 679.597 166.427 677.047 173.303C674.59 179.928 671.754 189.684 668.539 202.571C665.106 215.661 661.999 225.956 659.217 233.457C657.641 237.707 654.79 239.067 650.664 237.537ZM655.866 193.604C656.866 193.975 658.186 194.251 659.825 194.433C661.49 188.793 663.392 181.748 665.53 173.298C673.133 143.978 678.117 126.131 680.481 119.755L681.038 118.255C679.324 119.042 675.464 124.081 669.458 133.372C663.624 142.585 657.637 152.594 651.496 163.4C645.355 174.206 641.527 181.461 640.011 185.165C644.705 188.612 649.99 191.425 655.866 193.604Z" fill="#9C734E"/>
<path d="M686.719 257.072C685.189 256.258 684.09 254.918 683.421 253.052C682.808 251.366 682.908 249.758 683.722 248.228C684.286 247.168 685.21 245.999 686.495 244.719C687.725 243.259 688.559 242.117 688.998 241.293C694.572 230.817 704.693 210.376 719.361 179.969C731.712 153.918 741.801 133.535 749.63 118.822C750.194 117.762 751.044 117.157 752.181 117.007C753.381 116.739 754.569 116.919 755.746 117.545C757.159 118.296 758.113 119.484 758.609 121.107C759.167 122.612 759.07 124.071 758.319 125.484C754.561 132.546 749.278 143.328 742.468 157.829C734.727 173.797 729.385 184.547 726.441 190.08L725.491 192.292L724.363 194.411L723.706 195.647L723.236 196.53C718.14 206.959 710.175 222.355 699.34 242.718L696.898 247.309L710.493 254.543C712.026 257.623 712.322 260.047 711.383 261.812C710.694 263.107 709.597 264.034 708.091 264.592C706.766 265.095 705.515 265.034 704.338 264.407C703.985 264.22 703.4 263.757 702.584 263.021L701.972 262.469C701.203 262.211 700.053 261.674 698.523 260.86L695.521 259.263C694.76 258.707 693.85 258.147 692.79 257.584C690.862 258.37 688.838 258.199 686.719 257.072Z" fill="#9C734E"/>
<path d="M756.741 298.995C755.008 297.751 753.942 296.492 753.542 295.22C753.251 294.026 753.65 292.671 754.738 291.155L770.021 269.874C769.313 267.888 767.282 265.116 763.928 261.558C760.573 258 757.241 254.868 753.931 252.163C751.106 253.582 748.257 255.721 745.382 258.582L742.399 261.364C741.746 262.044 740.216 263.49 737.808 265.7C735.4 267.91 733.171 269.757 731.121 271.24C729.149 272.614 727.449 273.609 726.022 274.226C721.906 271.27 720.302 268.476 721.207 265.844C723.643 264.966 728.652 260.848 736.235 253.49L762.945 227.611C775.438 215.243 786.237 204.777 795.341 196.214C804.554 187.728 812.709 180.944 819.805 175.863C827.663 170.179 832.728 168.154 835.003 169.787C837.277 171.42 838.699 173.098 839.268 174.82C836.157 179.152 829.68 190.341 819.839 208.389C810.339 226.19 803.45 238.068 799.172 244.025C795.05 249.765 789.735 258.423 783.227 270C776.454 281.716 770.735 290.823 766.069 297.321C763.424 301.004 760.315 301.562 756.741 298.995ZM773.376 258.002C774.242 258.624 775.442 259.239 776.975 259.848C780.072 254.849 783.769 248.558 788.067 240.974C803.153 214.709 812.679 198.815 816.645 193.292L817.579 191.992C815.718 192.298 810.663 196.136 802.414 203.509C794.351 210.851 785.93 218.92 777.15 227.717C768.37 236.514 762.759 242.498 760.318 245.669C763.933 250.236 768.286 254.346 773.376 258.002Z" fill="#9C734E"/>
<path d="M786.346 327.369C785.086 326.179 784.38 324.596 784.229 322.62C784.083 320.832 784.605 319.308 785.795 318.047C786.619 317.175 787.819 316.291 789.397 315.397C790.969 314.314 792.076 313.434 792.716 312.755C800.863 304.126 816.029 287.089 838.216 261.644C857.017 239.787 872.138 222.798 883.579 210.679C884.403 209.806 885.383 209.448 886.519 209.604C887.747 209.663 888.846 210.15 889.815 211.065C890.979 212.163 891.585 213.561 891.634 215.257C891.774 216.857 891.295 218.238 890.197 219.401C884.705 225.219 876.758 234.219 866.357 246.403C854.668 259.756 846.673 268.71 842.371 273.267L840.869 275.15L839.221 276.895L838.26 277.913L837.574 278.64C829.902 287.35 818.148 300.091 802.314 316.865L798.744 320.646L809.943 331.217C810.606 334.594 810.251 337.009 808.878 338.463C807.871 339.53 806.568 340.133 804.969 340.274C803.558 340.409 802.367 340.019 801.398 339.103C801.107 338.829 800.665 338.228 800.073 337.302L799.628 336.608C798.955 336.155 797.988 335.334 796.728 334.144L794.255 331.81C793.668 331.073 792.938 330.292 792.066 329.468C789.998 329.716 788.091 329.017 786.346 327.369Z" fill="#9C734E"/>
<path d="M287.884 897.008C284.041 895.33 284.3 890.777 288.661 883.349C291.416 878.658 299.076 860.944 311.642 830.208C324.369 799.419 330.936 782.456 331.343 779.318C334.07 777.562 336.576 777.183 338.861 778.181C341.25 779.225 340.499 785.282 336.608 796.353C332.269 807.966 326.701 821.006 319.903 835.474L314.021 847.824C310.742 854.742 309.126 858.273 309.173 858.416L317.961 846.782L323.371 839.567C331.263 829.015 336.765 821.534 339.878 817.122C343.955 811.289 346.653 807.249 347.973 805.001L349.608 802.215C350.24 801.14 351.258 800.296 352.662 799.681C354.067 799.067 355.289 798.986 356.327 799.44C360.066 801.073 361.075 803.355 359.354 806.287L358.062 808.486C354.792 814.057 351.834 820.317 349.189 827.266C346.705 834.163 343.995 842.558 341.058 852.449C339.471 858.264 337.224 865.203 334.317 873.266C336.522 870.177 342.099 862.789 351.049 851.103C359.367 840.491 366.213 831.386 371.588 823.788C377.125 816.137 381.93 808.841 386.004 801.902C387.324 799.655 388.606 798.25 389.849 797.688C391.254 797.073 393.047 797.242 395.228 798.195C396.474 798.739 397.335 799.606 397.811 800.796C398.448 801.934 398.422 803.089 397.733 804.262C397.102 805.337 395.923 806.234 394.196 806.954C390.064 813.99 384.644 821.999 377.935 830.98C371.284 839.864 364.631 848.194 357.977 855.971C351.438 863.552 344.785 871.882 338.019 880.961C331.311 889.942 325.833 898.049 321.587 905.281C320.669 906.845 319.536 907.885 318.189 908.402C316.888 909.062 315.458 909.051 313.901 908.371C312.758 907.872 312.584 905.279 313.379 900.591C314.677 894.159 318.749 882 325.596 864.115L332.862 845.739L337.055 835.597C330.483 843.901 325.227 850.631 321.286 855.786C317.507 860.89 313.125 867.019 308.141 874.174C303.225 880.991 298.73 887.869 294.656 894.808C294.082 895.786 293.07 896.51 291.618 896.981C290.271 897.498 289.026 897.507 287.884 897.008Z" fill="#9C734E"/>
<path d="M398.553 941.273C395.535 940.765 393.022 939.309 391.014 936.906C389.006 934.502 387.495 931.436 386.483 927.709C384.593 921.194 384.042 912.61 384.829 901.956C385.338 894.583 386.376 886.151 387.944 876.661L389.766 867.846L391.793 858.892C392.331 855.999 393.064 852.508 393.989 848.418C395.491 841.786 397.096 835.974 398.806 830.984C400.454 825.753 402.76 820.691 405.724 815.797C408.538 811.566 411.835 808.793 415.613 807.479C417.825 806.933 419.936 806.83 421.948 807.168C427.871 808.166 432.04 811.277 434.453 816.503C437.077 822.338 438.278 828.565 438.056 835.183C438.093 843.222 437.422 850.797 436.045 857.909C434.715 865.833 433.262 873.276 431.686 880.24L429.547 889.691C429.121 891.57 428.041 895.06 426.306 900.161C424.933 904.176 423.922 907.62 423.271 910.494L423.121 911.157C421.75 914.139 420.589 917.731 419.638 921.931C418.937 925.026 417.541 928.119 415.449 931.209C413.358 934.299 410.82 936.798 407.836 938.705C404.776 940.944 401.682 941.8 398.553 941.273ZM400.952 932.21C403.188 932.587 405.55 930.862 408.041 927.035C410.208 923.613 412.158 919.352 413.893 914.251C415.765 909.058 417.675 903.183 419.623 896.626C420.497 893.79 421.447 890.106 422.473 885.574L425.758 870.291C426.886 864.285 427.904 856.711 428.814 847.569C429.646 839.791 429.496 832.766 428.363 826.494C427.871 823.542 426.962 821.152 425.636 819.322C424.31 817.492 422.697 816.417 420.797 816.097C418.003 815.627 415.448 817.434 413.131 821.519C410.428 825.769 408.185 830.555 406.4 835.877C404.403 841.623 402.748 847.139 401.436 852.426L400.029 857.869C399.567 859.398 399.036 861.489 398.436 864.142L398.285 864.805C396.609 872.211 395.327 881.462 394.44 892.558C392.9 907.56 393.162 918.448 395.225 925.222C396.585 929.467 398.494 931.796 400.952 932.21Z" fill="#9C734E"/>
<path d="M485.112 949.265C482.054 949.373 479.231 948.451 476.643 946.501C474.055 944.551 471.772 941.853 469.794 938.407C466.221 932.409 463.39 924.117 461.302 913.532C459.822 906.213 458.572 897.752 457.552 888.149L456.957 879.155L456.524 869.986C456.272 867.046 456.047 863.482 455.849 859.293C455.529 852.501 455.529 846.491 455.849 841.264C456.046 835.814 456.925 830.397 458.486 825.012C460.079 820.307 462.529 816.933 465.836 814.889C467.832 813.912 469.849 813.387 471.888 813.316C477.891 813.105 482.76 815.315 486.496 819.947C490.598 825.132 493.427 830.986 494.983 837.508C497.169 845.369 498.546 852.918 499.115 860.156C499.947 868.178 500.532 875.755 500.868 882.887L501.325 892.566C501.416 894.49 501.304 898.123 500.989 903.464C500.733 907.668 500.675 911.242 500.814 914.185L500.846 914.865C500.316 918.058 500.153 921.806 500.356 926.108C500.505 929.278 499.981 932.585 498.782 936.029C497.583 939.473 495.794 942.427 493.414 944.892C491.051 947.696 488.283 949.154 485.112 949.265ZM485.011 939.914C487.276 939.834 489.103 937.672 490.491 933.428C491.674 929.645 492.423 925.083 492.738 919.742C493.161 914.284 493.439 908.151 493.571 901.343C493.659 898.391 493.593 894.595 493.374 889.953L492.467 874.337C491.952 868.231 490.911 860.614 489.346 851.484C488.071 843.704 486.046 836.858 483.271 830.946C482.005 828.155 480.485 825.998 478.711 824.472C476.938 822.947 475.088 822.218 473.162 822.286C470.331 822.385 468.34 824.666 467.189 829.129C465.709 833.83 464.817 838.964 464.512 844.531C464.116 850.555 463.989 856.286 464.133 861.724L464.227 867.334C464.189 868.923 464.234 871.076 464.362 873.793L464.394 874.472C464.752 882.057 465.985 891.369 468.095 902.407C470.618 917.4 473.784 928.005 477.595 934.221C480.047 938.104 482.519 940.001 485.011 939.914Z" fill="#9C734E"/>
<path d="M556.663 935.567C554.463 936.115 552.377 936.111 550.403 935.555C548.54 934.971 547.32 933.82 546.744 932.1C548.371 929.133 547.475 922.545 544.055 912.336C542.003 906.211 538.521 897.414 533.607 885.947C528.764 875.045 525.262 866.37 523.102 859.922L520.462 850.974C519.708 848.368 518.773 845.399 517.657 842.067C516.649 839.058 514.822 835.38 512.174 831.033C509.234 826.526 507.441 823.306 506.793 821.371C505.533 817.61 509.137 814.674 517.604 812.564L520.079 811.948C526.017 810.468 531.78 810.953 537.366 813.404C541.893 815.536 546.321 819.148 550.648 824.241C553.593 827.699 556.823 832.716 560.336 839.292C563.012 845.146 564.926 849.792 566.078 853.231L567.806 858.389L570.344 865.965C570.268 866.45 570.302 866.907 570.446 867.337C570.734 868.197 571.005 868.828 571.259 869.23C571.513 869.633 571.748 870.156 571.964 870.801C573.116 874.24 573.952 878.514 574.472 883.624C575.066 888.599 575.201 893.805 574.878 899.242C573.889 912.296 571.143 922.062 566.641 928.54C563.948 932.238 560.622 934.581 556.663 935.567ZM556.995 925.354C560.236 921.869 562.622 917.432 564.153 912.044C565.649 906.548 566.267 900.747 566.009 894.64C565.45 883.369 563.371 872.36 559.771 861.614C557.827 855.811 555.153 849.607 551.75 843.003C548.308 836.642 543.708 831.268 537.949 826.881C535.216 824.768 532.185 823.369 528.858 822.684C525.495 821.892 521.999 821.948 518.37 822.853L518.424 823.014C521.664 832.686 527.219 847.136 535.091 866.366C542.926 885.488 548.517 900.047 551.865 910.041L556.995 925.354Z" fill="#9C734E"/>
<path d="M642.455 907.282C638.777 909.047 635.21 909.948 631.755 909.985C629.567 909.912 628.105 909.304 627.367 908.161C626.63 907.018 626.353 905.966 626.536 905.005C626.658 903.949 627.281 903.152 628.405 902.612C629.426 902.122 631.154 901.792 633.587 901.623C636.224 901.355 637.798 901.099 638.309 900.854C640.25 899.922 641.496 898.327 642.046 896.068C642.636 893.664 642.562 890.956 641.823 887.943C640.591 882.299 638.746 877.572 636.289 873.762C633.647 869.667 630.168 865.724 625.85 861.934C621.573 858 616.877 854.454 611.763 851.296L606.362 847.901C600.736 844.364 596.317 841.558 593.105 839.483C589.995 837.358 586.885 834.922 583.774 832.174C579.293 828.338 575.67 824.277 572.906 819.991C570.694 816.562 569.218 813.03 568.479 809.394C567.841 805.709 568.124 802.206 569.327 798.885C570.408 795.373 572.838 792.711 576.619 790.897C578.458 790.014 580.584 789.68 582.997 789.894C585.348 790.013 587.373 790.663 589.071 791.844L588.401 796.094C585.744 797.369 583.444 797.849 581.501 797.534C579.785 798.606 578.703 800.248 578.255 802.458C577.849 804.524 577.902 806.681 578.415 808.929C578.969 811.033 579.83 812.989 580.997 814.799C583.331 818.418 586.238 821.887 589.717 825.207C593.237 828.382 596.94 831.219 600.827 833.719L624.457 848.572C628.405 851.167 632.273 854.363 636.059 858.158C639.845 861.954 643.12 865.995 645.885 870.281C649.939 876.566 652.113 883.256 652.406 890.348C652.512 894.039 651.708 897.356 649.993 900.299C648.34 903.337 645.827 905.665 642.455 907.282Z" fill="#9C734E"/>
</svg>
